<svg version="1.1" viewBox="0 0 12.7 12.7" xml:space="preserve" xmlns="http://www.w3.org/2000/svg" xmlns:xlink="http://www.w3.org/1999/xlink"><defs><radialGradient id="radialGradient927" cx="4.8683" cy="4.9843" r="6.1634" gradientTransform="matrix(1.616 .91872 -.50919 .89566 -.46085 -3.9939)" gradientUnits="userSpaceOnUse"><stop stop-color="#17085c" offset="0"/><stop stop-color="#31288e" offset="1"/></radialGradient></defs><g><ellipse cx="6.35" cy="6.35" rx="6.0692" ry="6.253" fill="#fff" style="paint-order:stroke fill markers"/><path d="m6.35 0a6.1634 6.35 0 0 0-5.8384 4.3248c0.79838 0.36181 1.5306 1.0174 1.8025 1.7058 0.18571 0.47028 0.17793 1.0001-0.019637 1.3901l-0.060978 0.12041 0.31419 0.30282 0.31471 0.30282 0.25011-0.23151c0.13758-0.1274 0.25011-0.23919 0.25011-0.24856 0-0.00938-0.095069-0.10913-0.21136-0.22118-0.27157-0.26165-0.30595-0.32939-0.30592-0.60978 7.9e-6 -0.18397 0.009745-0.23656 0.064079-0.35243 0.084723-0.18077 0.22462-0.38255 0.39429-0.56896 0.27354-0.30051 2.5716-2.3237 2.7006-2.3776 0.15176-0.063408 0.32236-0.0037777 0.41289 0.14469 0.051807 0.084913 0.061221 0.23326 0.020154 0.31006-0.01461 0.027301-0.20137 0.26196-0.41548 0.52142-0.6866 0.83203-1.3052 1.6139-1.2769 1.6139 0.059467 0 1.2225-0.93777 2.0345-1.6402 0.15813-0.1368 0.25749-0.17241 0.38344-0.13849 0.18005 0.048482 0.28708 0.18451 0.2868 0.36484-1.895e-4 0.12906 7.457e-4 0.12797-0.47801 0.68781-0.43292 0.50625-1.0697 1.2951-1.232 1.5265l-0.10335 0.14779 0.1142-0.082166c0.15949-0.11453 1.0534-0.83199 1.5446-1.2397 0.53133-0.44108 0.51042-0.42852 0.67386-0.41496 0.10813 0.0089598 0.1473 0.024824 0.20567 0.083199 0.086689 0.086689 0.12146 0.21792 0.088884 0.3359-0.036802 0.13327-2.0525 2.4241-2.4386 2.7714-0.43889 0.39474-0.8692 0.52596-1.1891 0.36277-0.058045-0.029623-0.18922-0.14169-0.29146-0.24908l-0.18604-0.19534-0.22996 0.22841c-0.12667 0.12563-0.22738 0.24151-0.22376 0.25787 0.00395 0.016355 0.63923 0.6378 1.4128 1.3808 0.77361 0.743 1.4364 1.3937 1.4728 1.4464 0.12868 0.18618 0.14675 0.42224 0.043408 0.56741-0.071324 0.10016-0.26766 0.27218-0.40721 0.36742a6.1634 6.35 0 0 0 0.12351 0.004651 6.1634 6.35 0 0 0 3.514-1.1327h-0.15038l-0.13281-0.14728 0.16226-0.14728h0.49971a6.1634 6.35 0 0 0 1.4201-1.7043h-0.065629l-0.13229-0.14779 0.16175-0.14728h0.19482a6.1634 6.35 0 0 0 0.36535-0.88418h-0.46767l-0.2837-0.11059c0.034393-0.098262 0.10186-0.15992 0.20257-0.18448h0.6382a6.1634 6.35 0 0 0 0.2372-1.7441 6.1634 6.35 0 0 0-0.12609-1.2774h-1.0185c-0.095805-0.024565-0.15114-0.085706-0.16588-0.18397l0.30592-0.11059h0.81235a6.1634 6.35 0 0 0-0.28836-0.88418h-0.43563l-0.13229-0.14779 0.16175-0.14728h0.27802a6.1634 6.35 0 0 0-0.23254-0.45114l-0.034107 0.34055-0.2434 0.22118-0.066146-0.073897 0.089917-0.89865a6.1634 6.35 0 0 0-0.37052-0.49661l-0.05581 0.55707-0.081132 0.073897-0.19895-0.22118 0.071313-0.71107a6.1634 6.35 0 0 0-0.065112-0.068213l-0.002584 0.0056845h-0.88057l-0.2837-0.11059c0.034392-0.098262 0.10185-0.15992 0.20257-0.18448h0.66559a6.1634 6.35 0 0 0-0.21291-0.18397h-0.7214c-0.095805-0.024565-0.15114-0.086223-0.16588-0.18448l0.30541-0.11059h0.19482a6.1634 6.35 0 0 0-0.1819-0.12299l-0.0051676 0.049609-0.30592 0.11059 0.033073-0.33073a6.1634 6.35 0 0 0-3.0096-0.80874zm3.19 1.8392 0.28422 0.11059-0.07028 0.70022-0.2434 0.22118-0.066146-0.073897 0.095601-0.95808zm0.20309 0.92139h0.95808l0.13229 0.14728-0.16175 0.14728h-0.95808l-0.13281-0.14728 0.16226-0.14728zm-0.23978 0.18448 0.19895 0.22066-0.069763 0.70022-0.30592 0.11059 0.095601-0.95808 0.081132-0.07338zm1.4004 0 0.066146 0.07338-0.10335 1.032c-0.034393 0.098262-0.10186 0.1594-0.20257 0.18397l-0.081132-0.29456 0.077514-0.77411 0.2434-0.22066zm0.48369 0.83819 0.19895 0.22066-0.069763 0.70022-0.30592 0.11059 0.095602-0.95808 0.081132-0.07338zm-1.7627 0.15658h0.8847l0.081132 0.29456h-1.1054c-0.095805-0.024566-0.15114-0.085706-0.16588-0.18397l0.30541-0.11059zm1.3048 0.47904c0.095806 0.024565 0.15114 0.085706 0.16588 0.18397l-0.10335 1.032-0.081132 0.07338-0.19895-0.22066 0.077514-0.77411 0.14004-0.29456zm-1.3782 0.14728 0.2837 0.11059-0.081132 0.8108-0.2434 0.22066-0.066146-0.07338 0.10697-1.0687zm2.6355 0.69091c0.095805 0.024565 0.15114 0.085706 0.16588 0.18397l-0.10335 1.032-0.080616 0.073897-0.19895-0.22118 0.076998-0.77411 0.14004-0.29456zm-2.4438 0.34106h0.95808l0.13229 0.14728-0.16175 0.14728h-0.95808l-0.13281-0.14728 0.16226-0.14728zm1.1607 0.18397 0.066146 0.073897-0.10335 1.0315c-0.034393 0.098262-0.10186 0.15992-0.20257 0.18448l-0.081132-0.29507 0.077514-0.7736 0.2434-0.22118zm1.2573 0.83819 0.066662 0.073897-0.10335 1.0315c-0.034394 0.098262-0.10186 0.15992-0.20257 0.18448l-0.081132-0.29507 0.077515-0.7736 0.24288-0.22118zm-2.4071 0.63562h1.1017l-0.14004 0.29507h-0.88057l-0.2837-0.11059c0.034392-0.098262 0.10185-0.15992 0.20257-0.18448zm1.1756 0c0.095806 0.024565 0.15114 0.086223 0.16588 0.18448l-0.10335 1.0315-0.081132 0.073897-0.19895-0.22118 0.077514-0.7736 0.14004-0.29507zm-9.4785 1.0547-0.22841 0.079582c-0.2133 0.074038-0.24917 0.07942-0.54105 0.079065-0.058625-7.01e-5 -0.10072-0.0010983-0.14211-0.0020671a6.1634 6.35 0 0 0 0.6289 1.3157c0.47936-0.46267 0.86421-0.83554 0.86713-0.84336 0.0039487-0.010835-0.12614-0.15659-0.28887-0.32401l-0.29559-0.30489zm9.973 0.041858 0.2837 0.11007-0.069763 0.70022-0.2434 0.22118-0.066146-0.073897 0.095602-0.95756zm-1.681 0.082682h0.95808l0.13229 0.14728-0.16175 0.14728h-0.95808l-0.13281-0.14728 0.16226-0.14728zm-0.23978 0.18448 0.19895 0.22066-0.069763 0.70022-0.30592 0.11059 0.095601-0.95808 0.081132-0.07338zm0.12144 0.99477h0.99529l0.081132 0.29456h-1.2159c-0.095805-0.024565-0.15114-0.085706-0.16588-0.18397l0.30541-0.11059zm-6.7557 0.16226-0.94775 0.98547a6.1634 6.35 0 0 0 3.744 1.895c-0.11463-0.088531-1.3602-1.3684-2.5073-2.5766l-0.28887-0.30386zm6.8849 0.31678h1.2123l-0.14004 0.29456h-0.99115l-0.2837-0.11059c0.034391-0.098262 0.10185-0.1594 0.20257-0.18397zm-0.21394 0.25786 0.28422 0.11059-0.07028 0.70022-0.2434 0.22066-0.066146-0.073381 0.095601-0.95808z" fill="url(#radialGradient927)" stroke-width="2.0642" style="paint-order:stroke fill markers"/></g></svg>