<svg width="256" height="256" viewBox="0 0 67.733 67.733" xmlns="http://www.w3.org/2000/svg"><path d="m1.1418 45.459v-17.657h3.964v3.0165c0.98604-1.7942 3.1112-3.6323 5.5229-3.224 2.0849-0.07831 3.7002 1.6967 4.5057 3.224 1.6462-4.3542 9.0262-4.3512 10.431 0.19741 0.6885 2.6139 0.27227 5.3564 0.38693 8.0322v6.4105h-4.1693c-0.03439-3.9899 0.07036-7.9864-0.05528-11.972-0.29783-3.0028-5.1579-3.2269-5.9263-0.38594-0.41779 2.3112-0.11889 4.7011-0.20926 7.0474v5.3106h-4.1062c-0.0326-4.0047 0.06625-8.0161-0.05133-12.016-0.29359-2.5893-4.0623-3.1566-5.414-1.0858-1.1858 1.7646-0.57186 3.989-0.72549 5.9858v7.1164h-4.1536zm34.172 0.34745c-3.7816 0.21723-7.5066-2.4148-8.2508-6.1858-1.0395-4.2069 0.22482-9.5696 4.5651-11.391 3.983-1.7102 9.4266-0.05975 10.888 4.2611 0.64685 1.6866 0.64771 3.5126 0.63073 5.2926h-12.287c-0.22267 2.9254 2.5952 5.4321 5.4703 4.7053 1.9424 0.18584 2.1049-2.7286 3.8491-2.0795 0.92601 0.10916 1.852 0.21833 2.778 0.32749-0.74747 3.4297-4.3676 5.2011-7.6438 5.0695zm-0.23689-14.988c-2.1779-0.47638-4.9227 2.8322-3.7829 4.1693h7.8101c-0.08744-2.1744-1.661-4.3355-4.0272-4.1693zm12.946 4.3115v10.329h-4.1536v-23.532h4.0588v8.8914c1.0894-1.8563 3.315-3.6275 5.8018-3.2308 3.1531-0.06575 5.7432 2.7753 5.7167 5.8675 0.05897 4.0001 0.01023 8.0024 0.02616 12.003h-4.1693c-0.03401-3.8074 0.07064-7.6209-0.05725-11.424-0.16125-2.9872-4.2785-3.8634-6.1494-1.8734-0.79274 0.76376-1.0837 1.8982-1.0739 2.9691zm16.026 10.597c-4.365 0.0351-2.2071-7.0584 1.4154-4.6362 2.0881 1.2707 1.0414 4.7683-1.4154 4.6362z" color="#000000" fill="#fff" style="-inkscape-stroke:none;paint-order:fill markers stroke"/></svg>
